/* XPM */
static char * infinitypfm_xpm[] = {
"32 32 860 2",
"  	c None",
". 	c #FEFEFE",
"+ 	c #EBF3F0",
"@ 	c #D1E8E1",
"# 	c #D8ECE5",
"$ 	c #DDEDE8",
"% 	c #DDEDE7",
"& 	c #DBEBE8",
"* 	c #DAEAE6",
"= 	c #D9E9E5",
"- 	c #D9E9E4",
"; 	c #D8E7E2",
"> 	c #D6E6E1",
", 	c #D4E5E0",
"' 	c #D2E5DE",
") 	c #D1E3DD",
"! 	c #CEE2DA",
"~ 	c #CCE1D9",
"{ 	c #CBDFD8",
"] 	c #CADED6",
"^ 	c #C8DDD4",
"/ 	c #C7DDD4",
"( 	c #C5DCD2",
"_ 	c #C3DBD1",
": 	c #C2DAD0",
"< 	c #C2DACF",
"[ 	c #C1D9CE",
"} 	c #BED7CE",
"| 	c #BCD8CD",
"1 	c #B1CFC4",
"2 	c #BED8D0",
"3 	c #EEF3F3",
"4 	c #FEFFFF",
"5 	c #E9F3F0",
"6 	c #ECF4F2",
"7 	c #FCFDFD",
"8 	c #FEFEFF",
"9 	c #FFFFFF",
"0 	c #FCFDFE",
"a 	c #FDFEFD",
"b 	c #FCFDFB",
"c 	c #FCFCFA",
"d 	c #FAFBFA",
"e 	c #F8FBF8",
"f 	c #F4FAF6",
"g 	c #F4F9F6",
"h 	c #F3FAF5",
"i 	c #F1F7F2",
"j 	c #EEF7F0",
"k 	c #EFF7F1",
"l 	c #ECF7F0",
"m 	c #ECF6EF",
"n 	c #E5F4EB",
"o 	c #E9F4ED",
"p 	c #E6F3E9",
"q 	c #E2F1E7",
"r 	c #E2F2E6",
"s 	c #E0F1E5",
"t 	c #E0F0E5",
"u 	c #DFEFE3",
"v 	c #ABCEC1",
"w 	c #F0F5F3",
"x 	c #CEE6DE",
"y 	c #EAF5F2",
"z 	c #F8FCFC",
"A 	c #F3F9F9",
"B 	c #F7FBFB",
"C 	c #E2EFEB",
"D 	c #F9FBFB",
"E 	c #F2F8F6",
"F 	c #EFF6F4",
"G 	c #E5F2EE",
"H 	c #F1F8F5",
"I 	c #EDF6F1",
"J 	c #DFEEE7",
"K 	c #EAF6F0",
"L 	c #E7F4ED",
"M 	c #ECF5EF",
"N 	c #D0E6DC",
"O 	c #E9F5ED",
"P 	c #E2F1E9",
"Q 	c #E7F4EB",
"R 	c #CAE2D7",
"S 	c #E4F2E8",
"T 	c #DCEFE4",
"U 	c #C9E4D7",
"V 	c #DFEEE4",
"W 	c #D8ECE1",
"X 	c #D9EDE1",
"Y 	c #D1E9DA",
"Z 	c #C2DFD2",
"` 	c #B8D5CE",
" .	c #E7F2EF",
"..	c #FFFEFF",
"+.	c #DCECE7",
"@.	c #ACD3C8",
"#.	c #A7D2C7",
"$.	c #AAD4C8",
"%.	c #A9D3C7",
"&.	c #AAD3C7",
"*.	c #A3D1C5",
"=.	c #A9D3C6",
"-.	c #A8D3C5",
";.	c #A7D3C5",
">.	c #A5D4C5",
",.	c #A5D2C3",
"'.	c #ABD3C5",
").	c #A0D1C1",
"!.	c #A0D0C0",
"~.	c #A9D4C4",
"{.	c #A3CEBF",
"].	c #AAD3C3",
"^.	c #A1D1C2",
"/.	c #AAD1C4",
"(.	c #A3CFC4",
"_.	c #A7D1C4",
":.	c #A1CFC3",
"<.	c #A9D0C4",
"[.	c #CDE7D8",
"}.	c #BBD9CD",
"|.	c #8CBDAF",
"1.	c #F6FAF9",
"2.	c #FEFCFD",
"3.	c #E2F2EC",
"4.	c #D7EBE4",
"5.	c #D1E7E2",
"6.	c #D8EAE6",
"7.	c #CBE3DB",
"8.	c #D5EAE2",
"9.	c #CDE5DF",
"0.	c #D0E6DF",
"a.	c #CAE4DA",
"b.	c #CFE7DE",
"c.	c #CCE6DD",
"d.	c #C7E2D8",
"e.	c #CDE4DB",
"f.	c #C6E3D9",
"g.	c #CDE4DC",
"h.	c #BEDCD2",
"i.	c #CDE5DC",
"j.	c #C2E0D6",
"k.	c #CBE4D9",
"l.	c #B9DBD0",
"m.	c #C9E2D8",
"n.	c #BFDFD3",
"o.	c #C9E3D7",
"p.	c #B8DCCE",
"q.	c #C5E1D3",
"r.	c #C2E0D0",
"s.	c #CFE8D9",
"t.	c #A4D1C0",
"u.	c #F3F9F6",
"v.	c #FAFCFA",
"w.	c #E4F0EB",
"x.	c #D8ECE6",
"y.	c #CFE7E2",
"z.	c #D7EAE3",
"A.	c #C9E4DB",
"B.	c #D6E9E0",
"C.	c #CBE5DD",
"D.	c #D1E7DD",
"E.	c #CEE6DD",
"F.	c #CBE5DC",
"G.	c #C5E2D5",
"H.	c #CCE6DB",
"I.	c #C3E2D5",
"J.	c #CBE5DB",
"K.	c #BADDD0",
"L.	c #CBE4D8",
"M.	c #C2E1D4",
"N.	c #CBE6D7",
"O.	c #B5DBCC",
"P.	c #C7E5D5",
"Q.	c #BDE1D0",
"R.	c #C6E3D4",
"S.	c #B6DCCB",
"T.	c #C2E3D0",
"U.	c #BBE0CF",
"V.	c #C1E1CF",
"W.	c #C2E1D2",
"X.	c #9AC9BB",
"Y.	c #8DBEB1",
"Z.	c #F0F7F3",
"`.	c #F7F9F6",
" +	c #D2EBE3",
".+	c #A9D2C6",
"++	c #A3D0C5",
"@+	c #A6D1C5",
"#+	c #A6D3C4",
"$+	c #A1D0C3",
"%+	c #A7D2C4",
"&+	c #A6D2C4",
"*+	c #A4D2C4",
"=+	c #A4D1C4",
"-+	c #A5D1C4",
";+	c #A8D2C5",
">+	c #9FD1C2",
",+	c #A7D1C3",
"'+	c #A3D0C1",
")+	c #9ECEC0",
"!+	c #A6D2C3",
"~+	c #9ED1C3",
"{+	c #A7D0C3",
"]+	c #9ECFC0",
"^+	c #A0D0C3",
"/+	c #A8D1C2",
"(+	c #A0CEC3",
"_+	c #A4D1C1",
":+	c #A7D3C3",
"<+	c #9ECCC0",
"[+	c #8EBDB1",
"}+	c #ECF5F0",
"|+	c #F0F8F3",
"1+	c #E3F1E8",
"2+	c #E9F6EE",
"3+	c #E2F1EB",
"4+	c #E8F2EA",
"5+	c #D7EBE2",
"6+	c #E6F1E9",
"7+	c #DBEDE6",
"8+	c #DDEEE4",
"9+	c #D7EBE1",
"0+	c #DBEEE4",
"a+	c #D8ECE2",
"b+	c #D1E8DC",
"c+	c #D7EDE0",
"d+	c #D1EADD",
"e+	c #D7ECE0",
"f+	c #C4E2D7",
"g+	c #D7EBDC",
"h+	c #CDE6D9",
"i+	c #D6EBDD",
"j+	c #C1E0D1",
"k+	c #D2EBDB",
"l+	c #C9E5D6",
"m+	c #D1EAD7",
"n+	c #BDE0CE",
"o+	c #D0EAD8",
"p+	c #BADEC6",
"q+	c #C8E5D4",
"r+	c #A2CEBF",
"s+	c #9ECBBE",
"t+	c #8DBDB0",
"u+	c #E9F3EC",
"v+	c #F0F6EE",
"w+	c #D0E8DF",
"x+	c #ADD4C8",
"y+	c #A5D2C5",
"z+	c #ADD5C6",
"A+	c #A9D2C5",
"B+	c #ABD4C6",
"C+	c #AAD2C5",
"D+	c #A6D4C4",
"E+	c #A5D3C5",
"F+	c #ACD2C6",
"G+	c #A3D1C2",
"H+	c #ABD2C7",
"I+	c #98CCB5",
"J+	c #ACD4C8",
"K+	c #A2D0C2",
"L+	c #A9D4C3",
"M+	c #AAD2C3",
"N+	c #A1D0BF",
"O+	c #A4D0BF",
"P+	c #3E9B56",
"Q+	c #339646",
"R+	c #9ECBB9",
"S+	c #A0CEBF",
"T+	c #9ECBBF",
"U+	c #8DBDB1",
"V+	c #E5F2EA",
"W+	c #EBF4ED",
"X+	c #D5EBE1",
"Y+	c #C9E5D9",
"Z+	c #C2E1D7",
"`+	c #CAE3D9",
" @	c #BDE0D3",
".@	c #C5E3D6",
"+@	c #BEDFD4",
"@@	c #C1E0D4",
"#@	c #BEDFD2",
"$@	c #C0E0D3",
"%@	c #BDDED2",
"&@	c #BBDDD0",
"*@	c #BEE0D0",
"=@	c #B8DCD0",
"-@	c #C2E3D5",
";@	c #4CA45D",
">@	c #B5D8C3",
",@	c #B5DCCC",
"'@	c #BEDFD0",
")@	c #AFD8C9",
"!@	c #BCDECD",
"~@	c #B3DBCC",
"{@	c #C2E2D3",
"]@	c #47A05A",
"^@	c #74B88B",
"/@	c #86C39F",
"(@	c #2A913F",
"_@	c #94C6AF",
":@	c #9BCBBD",
"<@	c #E0F0E7",
"[@	c #E7F3E9",
"}@	c #D6E8DF",
"|@	c #CEE7DA",
"1@	c #C7E4D9",
"2@	c #CDE5DB",
"3@	c #C3E0D4",
"4@	c #CCE5D8",
"5@	c #C3E0D3",
"6@	c #C7E4D3",
"7@	c #C3E0D0",
"8@	c #C6E2D4",
"9@	c #C3E1D3",
"0@	c #BEDFCF",
"a@	c #C3E2D0",
"b@	c #BDDED0",
"c@	c #BEDECB",
"d@	c #309543",
"e@	c #70B681",
"f@	c #B7DCCB",
"g@	c #C2E1CE",
"h@	c #B1D8C7",
"i@	c #C0E0CD",
"j@	c #B6DBCA",
"k@	c #72B684",
"l@	c #5CAA6C",
"m@	c #ACD4C5",
"n@	c #9BCEB6",
"o@	c #A3CEC0",
"p@	c #9DCCBF",
"q@	c #DDEEE5",
"r@	c #E3F0E5",
"s@	c #A9D2C4",
"t@	c #A6D3C2",
"u@	c #A2CFC2",
"v@	c #A4D1C5",
"w@	c #A5D1C3",
"x@	c #A2D0C3",
"y@	c #A5D0C3",
"z@	c #9ECFC2",
"A@	c #94C7AE",
"B@	c #429F5B",
"C@	c #43A057",
"D@	c #9FCDC3",
"E@	c #A6D0C2",
"F@	c #A8D3CB",
"G@	c #A5D3C2",
"H@	c #98CAB9",
"I@	c #2C913E",
"J@	c #A2CDC0",
"K@	c #A0CDBF",
"L@	c #9ACCBF",
"M@	c #9ECEBE",
"N@	c #A0CDC0",
"O@	c #9DCBBF",
"P@	c #DDF0E3",
"Q@	c #D3E8DD",
"R@	c #D8ECDE",
"S@	c #D0E9DD",
"T@	c #D6EADE",
"U@	c #C8E6D6",
"V@	c #D6EADC",
"W@	c #CAE7D8",
"X@	c #CDE9D5",
"Y@	c #C9E5D5",
"Z@	c #CCE8D5",
"`@	c #C9E6D5",
" #	c #C4E2D1",
".#	c #C8E5D1",
"+#	c #C2E3D2",
"@#	c #8FC69B",
"##	c #83C199",
"$#	c #5AA967",
"%#	c #B1DCC0",
"&#	c #B8DDC3",
"*#	c #2B913C",
"=#	c #76B981",
"-#	c #73B986",
";#	c #7BBA8E",
">#	c #AAD6C5",
",#	c #ABD5C4",
"'#	c #A5D1BF",
")#	c #A1CEC0",
"!#	c #9ECCBF",
"~#	c #D6EBDE",
"{#	c #DBEEDD",
"]#	c #C4E2D5",
"^#	c #AAD4C5",
"/#	c #A7D1C2",
"(#	c #A8D3C3",
"_#	c #A6D1C4",
":#	c #A6D1C1",
"<#	c #A4D2C2",
"[#	c #A8D1C0",
"}#	c #A8D4C9",
"|#	c #48A15F",
"1#	c #9BC8B6",
"2#	c #7FBC93",
"3#	c #4CA867",
"4#	c #479F5C",
"5#	c #84C2A0",
"6#	c #78BC8F",
"7#	c #309544",
"8#	c #9CCCB9",
"9#	c #A1CCC0",
"0#	c #A2D0BF",
"a#	c #9CCCBF",
"b#	c #9FCDBE",
"c#	c #D3E9DA",
"d#	c #D8EDDB",
"e#	c #C8E4D6",
"f#	c #C2DFCF",
"g#	c #BADDCE",
"h#	c #BEE0CE",
"i#	c #B8DCCB",
"j#	c #BDDECC",
"k#	c #B5DBCB",
"l#	c #BBDCCC",
"m#	c #B8DCCA",
"n#	c #B5DCCA",
"o#	c #B5D8C7",
"p#	c #B7DCCA",
"q#	c #B8DDCF",
"r#	c #339545",
"s#	c #A9D4BF",
"t#	c #ACD8C0",
"u#	c #28903A",
"v#	c #60AC75",
"w#	c #B1D9C8",
"x#	c #A6D1C2",
"y#	c #ABD6C4",
"z#	c #A5D0C0",
"A#	c #A0CFBD",
"B#	c #A1CDBF",
"C#	c #D0E8DA",
"D#	c #D3EBDB",
"E#	c #C8E4D5",
"F#	c #C5E2D3",
"G#	c #BEDFD1",
"H#	c #C0E2D0",
"I#	c #BADECF",
"J#	c #C2E1CF",
"K#	c #B9DDCC",
"L#	c #BBDFCB",
"M#	c #B8DEC9",
"N#	c #BADECA",
"O#	c #B6DCC9",
"P#	c #B5DAC9",
"Q#	c #B9DEC6",
"R#	c #8AC69D",
"S#	c #49A45C",
"T#	c #B2D8C8",
"U#	c #BBDECF",
"V#	c #5EAC6F",
"W#	c #B5DBC7",
"X#	c #A8D4C3",
"Y#	c #B3D9C9",
"Z#	c #A9D4C2",
"`#	c #AED5C5",
" $	c #A7D3C2",
".$	c #ABD4C4",
"+$	c #A4CFC1",
"@$	c #A2D1C1",
"#$	c #CCE6D6",
"$$	c #D5EAD5",
"%$	c #AFDACE",
"&$	c #5CBFBF",
"*$	c #5CBCBF",
"=$	c #5EC0BF",
"-$	c #6DC2C1",
";$	c #5BBEBC",
">$	c #5ABDC0",
",$	c #62BFC0",
"'$	c #67C0C0",
")$	c #5BBCBF",
"!$	c #5ABFC0",
"~$	c #69C0C0",
"{$	c #5FC0BF",
"]$	c #727D57",
"^$	c #46A88E",
"/$	c #6CC4BF",
"($	c #5BBDBE",
"_$	c #58BCBC",
":$	c #5ABDBE",
"<$	c #6BC2C4",
"[$	c #59BDBC",
"}$	c #57BCBD",
"|$	c #57BCBB",
"1$	c #6AC1C3",
"2$	c #57BCBE",
"3$	c #58BAB9",
"4$	c #9CCEC2",
"5$	c #C8E3D0",
"6$	c #CBE7D5",
"7$	c #C4E3D1",
"8$	c #CFE7D2",
"9$	c #C4E3D2",
"0$	c #CBE3CD",
"a$	c #C6CFBB",
"b$	c #C6E6D2",
"c$	c #C0DFCB",
"d$	c #C2E2CC",
"e$	c #BFE0CB",
"f$	c #C1E2C9",
"g$	c #BFE1C9",
"h$	c #BCE0C9",
"i$	c #C5D4BF",
"j$	c #EA2F36",
"k$	c #C3E9D2",
"l$	c #B8D9C6",
"m$	c #C1E0CC",
"n$	c #B8DBC7",
"o$	c #BFDFC9",
"p$	c #B3D8C2",
"q$	c #BDDCCA",
"r$	c #AFD8C2",
"s$	c #B5D9C6",
"t$	c #ACD4C1",
"u$	c #AFD5C3",
"v$	c #A5D3C0",
"w$	c #A3CDBF",
"x$	c #BDDFC8",
"y$	c #C2E4CD",
"z$	c #B7DCC4",
"A$	c #A7D1BF",
"B$	c #A2D1BF",
"C$	c #A8CCB9",
"D$	c #E6262C",
"E$	c #A4DCCD",
"F$	c #9FD0C2",
"G$	c #A6CFBF",
"H$	c #A7CFC1",
"I$	c #A2D6C4",
"J$	c #A3CFC1",
"K$	c #A3DAC8",
"L$	c #D45A5A",
"M$	c #B49F9A",
"N$	c #A6D2C1",
"O$	c #A5D2C0",
"P$	c #9FCEBE",
"Q$	c #A5D2C1",
"R$	c #A5D2C2",
"S$	c #9CCEBD",
"T$	c #A5D0C1",
"U$	c #A2CEC0",
"V$	c #A1CFC0",
"W$	c #9CCDBE",
"X$	c #BBE0C7",
"Y$	c #C0E5CA",
"Z$	c #BED5C3",
"`$	c #B3DECB",
" %	c #ACDDCA",
".%	c #D3857E",
"+%	c #DE3239",
"@%	c #DC645F",
"#%	c #AAE5D1",
"$%	c #DC6A63",
"%%	c #D84747",
"&%	c #E53A3F",
"*%	c #E0514F",
"=%	c #D87C76",
"-%	c #E7252E",
";%	c #ADD4C1",
">%	c #B1D9C6",
",%	c #ACD5C4",
"'%	c #B1D9C7",
")%	c #AAD3C4",
"!%	c #B1D8C6",
"~%	c #A7D4C2",
"{%	c #AFD7C5",
"]%	c #ACD4C4",
"^%	c #A5D1C1",
"/%	c #A8D2C3",
"(%	c #A2CFC0",
"_%	c #BAE0C7",
":%	c #C6E2CD",
"<%	c #D5837A",
"[%	c #D17674",
"}%	c #AEE5CF",
"|%	c #EA1B26",
"1%	c #B5D4C1",
"2%	c #E92F35",
"3%	c #C77D7D",
"4%	c #E43F41",
"5%	c #B1E0CC",
"6%	c #B1E7D2",
"7%	c #BEC2B2",
"8%	c #DB6561",
"9%	c #C6AFA0",
"0%	c #ADDCC7",
"a%	c #B7DCC7",
"b%	c #AFD6C4",
"c%	c #B6DBC9",
"d%	c #AED6C5",
"e%	c #B4DAC6",
"f%	c #B0D9C6",
"g%	c #ADD6C5",
"h%	c #A2CFC1",
"i%	c #A3D0BF",
"j%	c #BBE0C8",
"k%	c #C1E3CA",
"l%	c #B7D9C5",
"m%	c #ED1A26",
"n%	c #C97471",
"o%	c #DB464B",
"p%	c #A2D6C7",
"q%	c #B1ADA3",
"r%	c #ED1E28",
"s%	c #A3CFBF",
"t%	c #A3D1C1",
"u%	c #A4CFC3",
"v%	c #A2D5C5",
"w%	c #A4D4C2",
"x%	c #9FCEC2",
"y%	c #A4D2C1",
"z%	c #A1D0C1",
"A%	c #9FCEC0",
"B%	c #9DCDBF",
"C%	c #A0CDC1",
"D%	c #BBE1C7",
"E%	c #C1E3CD",
"F%	c #B9E3CC",
"G%	c #C5AC9B",
"H%	c #F30510",
"I%	c #BFC8B5",
"J%	c #B6DDCA",
"K%	c #BFDDC6",
"L%	c #B6D3BC",
"M%	c #BDE0CC",
"N%	c #BADCC8",
"O%	c #BBE0CA",
"P%	c #B8DFC9",
"Q%	c #B8DDC7",
"R%	c #BDDFC9",
"S%	c #B6DEC7",
"T%	c #BEE0CA",
"U%	c #B4D9C4",
"V%	c #BADFCA",
"W%	c #B3D9C5",
"X%	c #BADCC6",
"Y%	c #ACD6C2",
"Z%	c #B5DCC7",
"`%	c #ABD6C3",
" &	c #B0D8C6",
".&	c #A8D3C1",
"+&	c #ABD5C3",
"@&	c #A3D1C0",
"#&	c #A1CEBF",
"$&	c #C1E5CD",
"%&	c #B9DDC8",
"&&	c #B2DBC4",
"*&	c #D3756F",
"=&	c #ADDFCD",
"-&	c #AFD6C5",
";&	c #B2D9C7",
">&	c #A9D7C3",
",&	c #B0D8C4",
"'&	c #AFD8C3",
")&	c #AED8C5",
"!&	c #AED7C4",
"~&	c #B1D7C4",
"{&	c #B1D8C5",
"]&	c #ABD5C2",
"^&	c #B0D8C7",
"/&	c #AAD3C2",
"(&	c #ADD7C3",
"_&	c #A4D3C1",
":&	c #A4D2C3",
"<&	c #A6D3C3",
"[&	c #9FCFC0",
"}&	c #C2E4CE",
"|&	c #B6DDC7",
"1&	c #AED6C3",
"2&	c #A8D6C6",
"3&	c #ADD8C6",
"4&	c #A9D5C3",
"5&	c #AED6C4",
"6&	c #A6D5C4",
"7&	c #ACD5C5",
"8&	c #A9D6C5",
"9&	c #ADD8C5",
"0&	c #A5D4C2",
"a&	c #A6D3C1",
"b&	c #ACD6C6",
"c&	c #A2D2C0",
"d&	c #ABD4C3",
"e&	c #A2D0C0",
"f&	c #A2CEBE",
"g&	c #C1E4CE",
"h&	c #BBE0C9",
"i&	c #C1E2CC",
"j&	c #BBDEC8",
"k&	c #C0E2CC",
"l&	c #BADDC8",
"m&	c #C1E2CB",
"n&	c #B9DFC9",
"o&	c #BDDFCA",
"p&	c #BEE1C9",
"q&	c #BCE0CA",
"r&	c #BFE0CA",
"s&	c #B6DAC4",
"t&	c #BEE0CB",
"u&	c #B6DAC6",
"v&	c #BBDDC8",
"w&	c #AFD7C4",
"x&	c #B7DBC9",
"y&	c #B1DAC7",
"z&	c #A5D1C0",
"A&	c #C1E4CC",
"B&	c #B6DCC6",
"C&	c #A8D3C2",
"D&	c #A1D0C0",
"E&	c #A3D2C1",
"F&	c #A8D3C0",
"G&	c #A7D2C0",
"H&	c #A6D2C2",
"I&	c #A0D2C1",
"J&	c #A8D2C1",
"K&	c #9ED0BE",
"L&	c #A7D2C1",
"M&	c #9FCEBF",
"N&	c #9FCFBF",
"O&	c #A7D2C2",
"P&	c #9CCEBF",
"Q&	c #A0CFC0",
"R&	c #A3CEBE",
"S&	c #9ACEBF",
"T&	c #9FCDBF",
"U&	c #A0CEC0",
"V&	c #B8DEC8",
"W&	c #C3E3CB",
"X&	c #BDE1CA",
"Y&	c #C4E5CE",
"Z&	c #C2E3CD",
"`&	c #BEDFCB",
" *	c #C4E5CC",
".*	c #BEDDC8",
"+*	c #C2E5CE",
"@*	c #C0E1CC",
"#*	c #C1E3CB",
"$*	c #BFE2CB",
"%*	c #C4E3CD",
"&*	c #C5E3CD",
"**	c #B7DBC8",
"=*	c #C0E3CB",
"-*	c #BBDBC8",
";*	c #AED9C4",
">*	c #BADFC9",
",*	c #B4DBC7",
"'*	c #AAD5C2",
")*	c #AED3C1",
"!*	c #A5D2BF",
"~*	c #8BBCAF",
"{*	c #A2CDB9",
"]*	c #C3E4CC",
"^*	c #BCDFC9",
"/*	c #C2E2CB",
"(*	c #9BAFA1",
"_*	c #C7E7D2",
":*	c #B9DFC8",
"<*	c #C0E1CA",
"[*	c #9FB5A8",
"}*	c #B5D2BF",
"|*	c #BDDCC7",
"1*	c #8A9E90",
"2*	c #BDE4CD",
"3*	c #C1E1CB",
"4*	c #B1CBBA",
"5*	c #91A799",
"6*	c #B5DBC9",
"7*	c #8EA397",
"8*	c #B9DBC7",
"9*	c #AFD0BF",
"0*	c #8DA99D",
"a*	c #B3DAC7",
"b*	c #AAD3C1",
"c*	c #A2C8B7",
"d*	c #8EACA2",
"e*	c #A7D0C1",
"f*	c #9CCBBE",
"g*	c #99C1B7",
"h*	c #B1D0C4",
"i*	c #C2E4CB",
"j*	c #BAE0CB",
"k*	c #C2E3CA",
"l*	c #A5BFAD",
"m*	c #C5E9D1",
"n*	c #BBDEC9",
"o*	c #BEDEC8",
"p*	c #8FA295",
"q*	c #BEE1C8",
"r*	c #BCE2CA",
"s*	c #B7D5C0",
"t*	c #8B9A8F",
"u*	c #BEE0CC",
"v*	c #BFE2CA",
"w*	c #ACC6B6",
"x*	c #94A799",
"y*	c #B6DBC8",
"z*	c #BEDDC7",
"A*	c #A1B6AA",
"B*	c #A8C3B2",
"C*	c #9FB9AA",
"D*	c #98B0A6",
"E*	c #AED0C0",
"F*	c #A7CBBC",
"G*	c #9ABBAE",
"H*	c #A5D0BF",
"I*	c #9BC8BB",
"J*	c #D2E4DF",
"K*	c #F0F6F6",
"L*	c #98BEAF",
"M*	c #C3E4CE",
"N*	c #C8E7D1",
"O*	c #BFE3CD",
"P*	c #BBDFCC",
"Q*	c #C3E6CD",
"R*	c #C4E9D0",
"S*	c #B9E0C8",
"T*	c #BEE2CD",
"U*	c #BEE4CB",
"V*	c #B4DCC8",
"W*	c #BEE1CC",
"X*	c #BFDFCC",
"Y*	c #BCE2CB",
"Z*	c #AED7C2",
"`*	c #B9DCCA",
" =	c #B0DAC5",
".=	c #A9D4C1",
"+=	c #AAD7C4",
"@=	c #9DCABB",
"#=	c #93BEB2",
"$=	c #F3F3F4",
"%=	c #DDDFDF",
"&=	c #ADBBB9",
"*=	c #869E97",
"==	c #839B93",
"-=	c #7C948D",
";=	c #768E87",
">=	c #718980",
",=	c #6B837A",
"'=	c #647B73",
")=	c #647B74",
"!=	c #647C74",
"~=	c #657C75",
"{=	c #627B73",
"]=	c #667C74",
"^=	c #617A75",
"/=	c #637A73",
"(=	c #617974",
"_=	c #69817B",
":=	c #6E8880",
"<=	c #738D87",
"[=	c #7A928B",
"}=	c #7C9891",
"|=	c #849E99",
"1=	c #B9C2C3",
"2=	c #E7E7E9",
"3=	c #F4F5F6",
". + @ # $ % & * = - ; > , ' ) ! ~ { ] ^ / ( _ : < [ } | 1 2 3 4 ",
"5 6 7 8 . 9 0 4 a b c d e f g h i j k l m n o n p q r s t u v w ",
"x 8 y z A B C D E F G H I J K L M N O P Q R S T q U V W X Y Z ` ",
" ...+.@.#.$.%.&.*.=.-.;.>.,.'.).-.!.~.{.].^./.!.=.(._.:.<.[.}.|.",
"1.2.3.4.5.6.7.8.9.0.a.b.c.d.e.f.g.h.i.j.k.l.m.n.o.p.q.n.r.s.t.|.",
"u.v.w.x.y.z.A.B.C.D.a.E.F.G.H.I.J.K.L.M.N.O.P.Q.R.S.T.U.V.W.X.Y.",
"Z.`. +.+++=.@+#+$+%+&+*+=+-+;+>+,+'+#+)+!+~+{+]+<.^+/+(+_+:+<+[+",
"}+|+1+2+3+4+5+6+7+8+9+0+a+b+c+d+e+f+g+h+i+j+k+l+m+n+o+p+q+r+s+t+",
"u+v+w+x+y+z+A+B+-+~.C+D+E+!+F+G+H+I+J+K+L+).M+N+&+O+P+Q+R+S+T+U+",
"V+W+X+Y+Z+`+ @.@+@@@#@$@%@&@*@=@-@;@>@,@'@)@!@~@{@]@^@/@(@_@:@U+",
"<@[@}@|@1@2@3@4@5@6@7@8@9@0@a@b@c@d@e@f@g@h@i@j@k@l@m@(.n@o@p@t+",
"q@r@1@:+K+s@,.t@u@-+v@w@x@y@,.z@A@B@C@D@E@F@G@H@I@J@K@L@M@N@O@t+",
"W P@Q@R@S@T@U@V@W@X@Y@Z@`@ #.#+#@###$#%#&#*#=#-#;#>#,#_+'#)#!#U+",
"~#{#]#^#y@B+/#L+K+(#_#:#<#,.[#}#|#1#2#3#4#5#6#7#8#9#0#a#b#N@!#U+",
"c#d#e#f#g#h#i#j#k#l#f@m#n#o#p#q#r#s#t#u#v#z+w#x#y#z#/+A#0#B#!#t+",
"C#D#E#F#G#H#I#J#K#L#M#N#O#P#Q#R#S#T#U#V#W#X#Y#Z#`# $.$+$@$B#!#U+",
"#$$$%$&$*$=$-$;$>$,$'$)$!$~${$]$^$/$($_$:$<$[$}$|$1$}$2$3$4$!#U+",
"5$6$7$8$9$0$a$b$c$d$e$f$g$h$i$j$k$l$m$n$o$p$q$r$s$t$u$[#v$w$!#U+",
"x$y$z$A$B$C$D$E$F$G$H$I$J$K$L$M$N$z#O$P$Q$o@R$S$T$U$V$W$!#B#!#U+",
"X$Y$Z$`$ %.%+%@%#%$%%%&%*%=%-%;%>%,%'%)%!%~%{%<#]%^%/%V$(%B#!#t+",
"_%:%<%[%}%|%1%2%3%4%5%6%7%8%9%0%a%b%c%d%e%y#f%X#g%/#(#h%i%)#!#U+",
"j%k%l%m%n%o%p%q%r%s%t%G+u%v%w%x%y%z%w@A%'+z@T$B%J$C%(%a#S+N@!#U+",
"D%E%F%G%H%I%J%K%L%M%N%O%P%Q%R%S%T%U%V%W%X%Y%Z%`% &.&+&@&'##&!#U+",
"j%$&%&&&*&=&-&;&>&,&'&,&)&!&~&+&{&]&^&/&b%G@(&_&X#:&<&[&#&)#!#U+",
"_%}&|&1&2&3&4&5&6&d%7&y#8&~.9&0&g%a&b&R$,#c&d&e&.&s%z#S+f&K@!#U+",
"_%g&h&i&j&k&l&m&n&g$o&p&q&j&r&P%r&s&t&u&v&w&x&g%y&/&,%G+z&)#!#U+",
"X$A&B&C&D&t@E&F&z%G&H&t.I&R$J&K&L&e&H&M&N$N&O&P&(%Q&R&S&T&U&T+U+",
"V&W&X&Y&Z&Y&`& *.*+*@*#*$*X&%*A&&***=*-*.*;*>*W%,*'*)*G$!*)#T+~*",
"{*]*^*/*(*_*:*<*[*}*@*|*1*2*3*4*5*6*t&7*8*{%9*0*a*b*c*d*e*N@f*g*",
"h*i*j*k*l*m*n*o*p*q*r*s*t*u*v*w*x*y*z*A*B*!&C*D*E*d&F*G*H*U&I*J*",
"K*L*q*Z&M*A&j&k*N*O*P*Q*R*S*T*U*Y&V*W*X*Y*Z*V&`* =.=+=Z#B$@=#=9 ",
"$=%=&=*===-=;=>=,='=)=!=~={=]=!=)=^=)=)=/=(={=_=:=<=[=}=|=1=2=3="};
